<svg width="26" height="11" viewBox="0 0 26 11" fill="none" xmlns="http://www.w3.org/2000/svg">
<path d="M25.6961 4.7561C25.7089 6.01808 25.6693 7.28005 25.5774 8.53645C25.5478 8.93248 25.4052 9.29963 25.1778 9.56544C24.9504 9.83125 24.6547 9.97641 24.3492 9.97226C16.8773 10.2085 9.34033 10.2085 1.73819 9.97226C1.43989 9.97395 1.15119 9.83502 0.925421 9.58113C0.699654 9.32723 0.552075 8.97553 0.509944 8.59097C0.350997 7.04008 0.306595 5.47291 0.377348 3.91098C0.377348 3.21125 0.447136 2.5297 0.509944 1.82997C0.554842 1.44458 0.703957 1.09273 0.930426 0.83782C1.15689 0.582908 1.44583 0.441688 1.74517 0.439601C9.22169 0.215446 16.754 0.215446 24.3422 0.439601C24.6394 0.430896 24.9288 0.563615 25.1562 0.81288C25.3836 1.06214 25.5334 1.41084 25.5774 1.79362C25.6472 2.77506 25.6821 3.76558 25.6961 4.7561Z" fill="url(#paint0_linear_603_2)"/>
<path d="M24.6633 8.45423C24.6488 8.54644 24.6104 8.62934 24.5544 8.68894C24.4985 8.74853 24.4285 8.78118 24.3562 8.78137C21.0134 8.88133 17.6148 8.93586 14.251 8.94494H13.0856H8.57736H7.37004C5.49975 8.94494 3.62248 8.86316 1.78708 8.80863C1.7095 8.80926 1.63449 8.77247 1.5765 8.70535C1.51851 8.63823 1.48166 8.54554 1.47304 8.44514C1.27268 6.44012 1.26096 4.41075 1.43815 2.40204L1.48002 1.96584C1.48851 1.86458 1.52511 1.77083 1.58294 1.70223C1.64076 1.63362 1.71584 1.59487 1.79406 1.59326C5.52767 1.48421 9.3171 1.42969 13.0577 1.42969H13.1484C15.4444 1.42969 17.7613 1.42969 20.0713 1.4933C21.467 1.4933 22.9256 1.54782 24.3422 1.59326C24.4136 1.593 24.4828 1.62435 24.5386 1.68216C24.5944 1.73997 24.6335 1.82078 24.6493 1.91132C24.813 4.0868 24.8177 6.2776 24.6633 8.45423Z" fill="url(#paint1_linear_603_2)"/>
<path d="M24.6631 1.87548C24.6668 3.04069 24.6249 4.20539 24.5375 5.36504C24.5255 5.4581 24.4875 5.5421 24.4308 5.60084C24.3741 5.65957 24.3027 5.68888 24.2304 5.68309C20.5596 5.79214 16.819 5.85575 13.1203 5.85575C9.4216 5.85575 5.64612 5.79214 1.95439 5.68309C1.87865 5.68373 1.8054 5.6479 1.74872 5.58248C1.69204 5.51706 1.65593 5.42667 1.64733 5.32869C1.54396 4.3438 1.49034 3.35115 1.48682 2.35712L1.52869 1.92092C1.53718 1.81966 1.57378 1.72591 1.63161 1.65731C1.68943 1.5887 1.76451 1.54995 1.84273 1.54834C5.57633 1.43929 9.36577 1.38477 13.1064 1.38477C16.8469 1.38477 20.6434 1.43929 24.3909 1.54834C24.4571 1.55826 24.5191 1.5953 24.568 1.6541C24.6169 1.7129 24.6502 1.79043 24.6631 1.87548Z" fill="url(#paint2_linear_603_2)"/>
<path style="mix-blend-mode:screen" d="M20.051 1.45535C19.5881 1.51008 19.1328 1.64453 18.6971 1.85519C18.0248 2.26037 17.4129 2.81723 16.8896 3.50001C15.6265 4.96307 14.3633 6.42614 13.0653 7.85286C12.8559 8.08004 12.5768 8.51624 12.8838 8.7616C13.1909 9.00696 13.5189 8.86156 13.7771 8.87973C13.9237 8.87973 14.0702 8.87973 14.2168 8.87973H13.0862C11.5928 8.87973 9.80623 8.87973 8.29883 8.87973C8.40113 8.85931 8.50165 8.82583 8.59891 8.77977C8.80955 8.64979 9.01046 8.49464 9.19908 8.31631C10.193 7.55084 11.1278 6.66222 11.9906 5.6628C12.6884 4.83585 13.2467 4.0089 13.826 3.31826C14.0214 3.08199 14.2307 2.77302 14.1889 2.40952C14.147 2.04603 13.8469 1.80976 13.5677 1.68253C13.1173 1.48081 12.6476 1.36154 12.172 1.32812C14.4471 1.39174 17.741 1.40991 20.051 1.45535Z" fill="url(#paint3_linear_603_2)"/>
<defs>
<linearGradient id="paint0_linear_603_2" x1="13.0228" y1="-6.19418" x2="13.0228" y2="7.14608" gradientUnits="userSpaceOnUse">
<stop stop-color="#FFCA2B"/>
<stop offset="1" stop-color="#D15B24"/>
</linearGradient>
<linearGradient id="paint1_linear_603_2" x1="13.0228" y1="16.9873" x2="13.0228" y2="4.07411" gradientUnits="userSpaceOnUse">
<stop stop-color="#FFCE3B"/>
<stop offset="1" stop-color="#CC6923"/>
</linearGradient>
<linearGradient id="paint2_linear_603_2" x1="13.0226" y1="6.78267" x2="13.0226" y2="-0.523583" gradientUnits="userSpaceOnUse">
<stop stop-color="#FFCE3B"/>
<stop offset="1" stop-color="#CC6923"/>
</linearGradient>
<linearGradient id="paint3_linear_603_2" x1="18.7599" y1="-5.81455" x2="9.35192" y2="7.48997" gradientUnits="userSpaceOnUse">
<stop stop-color="#F2DE6D"/>
<stop offset="1"/>
</linearGradient>
</defs>
</svg>
