<svg width="19" height="4" viewBox="0 0 19 4" fill="none" xmlns="http://www.w3.org/2000/svg">
<path d="M18.8611 1.53309C18.8707 1.96011 18.8412 2.38712 18.7728 2.81226C18.7508 2.94626 18.6447 3.07049 18.4756 3.16044C18.3065 3.25038 18.0866 3.2995 17.8593 3.29809C12.3022 3.37804 6.69671 3.37804 1.04272 3.29809C0.82086 3.29867 0.606143 3.25166 0.438232 3.16575C0.27032 3.07983 0.160561 2.96083 0.129226 2.83071C0.0110111 2.30593 -0.0220122 1.77564 0.0306097 1.24713C0.0306097 1.01036 0.0825131 0.77974 0.129226 0.542972C0.162618 0.412567 0.273521 0.293512 0.441954 0.207257C0.610387 0.121002 0.825277 0.0732171 1.04791 0.0725108C6.60847 -0.00333695 12.2106 -0.00333695 17.8542 0.0725108C18.0752 0.0695655 18.2904 0.114474 18.4595 0.198818C18.6287 0.283162 18.7401 0.401152 18.7728 0.530672C18.8247 0.862763 18.8507 1.19793 18.8611 1.53309Z" fill="url(#paint0_linear_504_7)"/>
<path d="M18.8616 1.53284C18.8473 1.58532 18.8193 1.63616 18.7786 1.68351C18.7385 1.73682 18.6662 1.77932 18.5759 1.80265C18.4856 1.82598 18.3839 1.82845 18.2907 1.80958C18.1984 1.96671 18.129 2.12822 18.0831 2.29235C18.0831 2.10478 18.0831 1.91106 18.0831 1.72041C18.0831 1.58204 18.0831 1.44367 18.0831 1.3053C18.0754 1.2367 18.0754 1.16788 18.0831 1.09928C18.0831 1.08083 18.109 1.06238 18.0831 1.04393C18.0831 0.95476 17.8443 0.920936 17.7146 0.905561C16.49 0.80606 15.2508 0.786469 14.019 0.847138C10.2457 0.905562 6.46194 0.539647 2.70415 0.742591C2.2611 0.742274 1.82712 0.816952 1.45329 0.957835L1.41177 0.976284C1.26442 1.05261 1.1444 1.14567 1.05882 1.24995C1.03351 1.27487 1.01428 1.30178 1.00173 1.3299C0.997196 1.35128 0.986672 1.37207 0.970589 1.3914C0.923876 1.44982 0.882354 1.50517 0.846022 1.56359C0.775023 1.68203 0.726285 1.80474 0.700692 1.92951C0.700692 1.99408 0.700692 2.05558 0.700692 2.11708C0.700692 2.17857 0.700692 2.17857 0.700692 2.2124V2.28005C0.550173 2.0279 0.591696 1.75116 0.482699 1.48979C0.463832 1.43763 0.426699 1.3884 0.373702 1.34527C0.34473 1.32543 0.311589 1.30786 0.275087 1.293L0.212803 1.27763H0.119377C0.0941958 1.2773 0.0696696 1.27281 0.0485726 1.26466C0.0274756 1.25651 0.0106502 1.24502 0 1.2315C0 0.994734 0.0519029 0.764115 0.0986158 0.527347C0.132008 0.396942 0.242911 0.277887 0.411344 0.191632C0.579777 0.105378 0.794668 0.0575921 1.0173 0.0568858C6.57786 -0.0189619 12.1799 -0.0189619 17.8235 0.0568858C18.0537 0.049679 18.2799 0.0945927 18.4563 0.182523C18.6327 0.270454 18.746 0.394822 18.7734 0.530422C18.8253 0.862513 18.8512 1.19768 18.8616 1.53284Z" fill="#FFDF80"/>
<path d="M18.0931 2.77925C18.0824 2.81045 18.0538 2.8385 18.0122 2.85867C17.9706 2.87883 17.9185 2.88988 17.8648 2.88995C15.3786 2.92377 12.8509 2.94222 10.3492 2.94529H9.48241H6.12947H5.23154C3.84054 2.94529 2.44434 2.91762 1.07929 2.89917C1.02159 2.89938 0.965798 2.88693 0.922672 2.86422C0.879545 2.84151 0.852135 2.81015 0.845725 2.77617C0.696711 2.09773 0.687996 1.41105 0.819773 0.731359L0.850915 0.583763C0.857232 0.549498 0.884451 0.517778 0.927459 0.494564C0.970467 0.471349 1.0263 0.458238 1.08448 0.457692C3.8613 0.420793 6.67964 0.402344 9.46165 0.402344H9.52913C11.2367 0.402344 12.9599 0.402344 14.6779 0.423868C15.716 0.423868 16.8008 0.442318 17.8544 0.457692C17.9074 0.457605 17.9589 0.468214 18.0004 0.487773C18.0419 0.507333 18.071 0.534679 18.0828 0.565314C18.2045 1.30143 18.208 2.04274 18.0931 2.77925Z" fill="url(#paint1_linear_504_7)"/>
<path d="M18.0932 0.558624C18.096 0.952897 18.0648 1.347 17.9998 1.73939C17.9909 1.77088 17.9627 1.7993 17.9205 1.81918C17.8783 1.83905 17.8252 1.84897 17.7714 1.84701C15.0413 1.88391 12.2593 1.90543 9.50846 1.90543C6.75759 1.90543 3.94963 1.88391 1.20395 1.84701C1.14762 1.84723 1.09315 1.8351 1.05099 1.81297C1.00884 1.79083 0.981979 1.76025 0.975579 1.72709C0.898698 1.39383 0.85882 1.05795 0.856201 0.721594L0.887343 0.573998C0.89366 0.539733 0.920879 0.508013 0.963888 0.484799C1.0069 0.461584 1.06273 0.448472 1.12091 0.447927C3.89773 0.411028 6.71607 0.392578 9.49808 0.392578C12.2801 0.392578 15.1036 0.411028 17.8908 0.447927C17.94 0.451284 17.9861 0.463816 18.0225 0.483713C18.0589 0.50361 18.0837 0.529843 18.0932 0.558624Z" fill="url(#paint2_linear_504_7)"/>
<path style="mix-blend-mode:screen" d="M14.6627 0.414142C14.3185 0.432662 13.9799 0.478157 13.6558 0.549438C13.1558 0.686541 12.7007 0.874963 12.3115 1.106C11.3721 1.60106 10.4326 2.09612 9.46723 2.57888C9.31152 2.65575 9.10391 2.80335 9.33228 2.88637C9.56065 2.96939 9.8046 2.92019 9.99664 2.92634C10.1056 2.92634 10.2146 2.92634 10.3236 2.92634H9.4828C8.37207 2.92634 7.04335 2.92634 5.92224 2.92634C5.99833 2.91943 6.07308 2.90811 6.14543 2.89252C6.30208 2.84854 6.45151 2.79604 6.59179 2.7357C7.33099 2.47668 8.02626 2.176 8.66792 1.83783C9.18695 1.55801 9.60218 1.27819 10.033 1.0445C10.1783 0.964552 10.334 0.860005 10.3029 0.737008C10.2717 0.614012 10.0485 0.534064 9.84093 0.491015C9.50595 0.422759 9.15659 0.3824 8.80287 0.371094C10.4949 0.392618 12.9447 0.398768 14.6627 0.414142Z" fill="url(#paint3_linear_504_7)"/>
<defs>
<linearGradient id="paint0_linear_504_7" x1="9.43546" y1="-2.17217" x2="9.43546" y2="2.34179" gradientUnits="userSpaceOnUse">
<stop stop-color="#FFCA2B"/>
<stop offset="1" stop-color="#D15B24"/>
</linearGradient>
<linearGradient id="paint1_linear_504_7" x1="9.4357" y1="5.66659" x2="9.4357" y2="1.29714" gradientUnits="userSpaceOnUse">
<stop stop-color="#FFCE3B"/>
<stop offset="1" stop-color="#CC6923"/>
</linearGradient>
<linearGradient id="paint2_linear_504_7" x1="9.4358" y1="2.21907" x2="9.4358" y2="-0.253153" gradientUnits="userSpaceOnUse">
<stop stop-color="#FFCE3B"/>
<stop offset="1" stop-color="#CC6923"/>
</linearGradient>
<linearGradient id="paint3_linear_504_7" x1="13.7025" y1="-2.04579" x2="11.7338" y2="4.07377" gradientUnits="userSpaceOnUse">
<stop stop-color="#F2DE6D"/>
<stop offset="1"/>
</linearGradient>
</defs>
</svg>
