<svg width="43" height="38" viewBox="0 0 43 38" fill="none" xmlns="http://www.w3.org/2000/svg">
<path fill-rule="evenodd" clip-rule="evenodd" d="M-6.43229e-07 19.045C0.0182515 14.0132 1.5671 9.19423 4.30967 5.63616C7.05225 2.07809 10.7667 0.0687018 14.6453 0.0450221L27.3471 0.0450214C29.3505 -0.134225 31.3609 0.22298 33.2533 1.09439C35.1458 1.9658 36.8799 3.33281 38.3479 5.11049C39.8159 6.88818 40.9864 9.03852 41.7868 11.4279C42.5871 13.8173 43 16.3947 43 19C43 21.6052 42.5871 24.1827 41.7868 26.5721C40.9865 28.9615 39.8159 31.1118 38.3479 32.8895C36.8799 34.6672 35.1458 36.0342 33.2533 36.9056C31.3609 37.777 29.3505 38.1342 27.3471 37.955L14.6453 37.955C10.7731 37.955 7.0585 35.9656 4.31396 32.4219C1.56943 28.8781 0.0183511 24.0685 -6.43229e-07 19.045V19.045Z" fill="url(#paint0_linear_426_3856)"/>
<path style="mix-blend-mode:multiply" fill-rule="evenodd" clip-rule="evenodd" d="M39.5229 19.045C39.5047 24.0685 37.9666 28.8781 35.245 32.4219C32.5234 35.9656 28.8398 37.955 25 37.955L27.4779 37.955C29.4645 38.1342 31.4581 37.777 33.3348 36.9056C35.2114 36.0342 36.931 34.6672 38.3868 32.8895C39.8425 31.1118 41.0033 28.9615 41.7969 26.5721C42.5905 24.1827 43 21.6052 43 19C43 16.3947 42.5905 13.8173 41.7969 11.4279C41.0033 9.03852 39.8425 6.88817 38.3868 5.11049C36.931 3.33281 35.2114 1.9658 33.3348 1.09439C31.4581 0.222977 29.4645 -0.134227 27.4779 0.0450187L25 0.0450189C28.8461 0.0686982 32.5296 2.07809 35.2493 5.63616C37.9689 9.19422 39.5048 14.0132 39.5229 19.045V19.045Z" fill="url(#paint1_radial_426_3856)"/>
<path style="mix-blend-mode:screen" fill-rule="evenodd" clip-rule="evenodd" d="M2 18.5456C2.01837 22.8901 3.35102 27.0498 5.70873 30.1219C8.06645 33.194 11.259 34.9305 14.5932 34.9544L27.3963 34.9544C29.1336 35.123 30.8791 34.8227 32.5233 34.0722C34.1676 33.3218 35.6753 32.1372 36.9521 30.5928C38.229 29.0484 39.2475 27.1773 39.944 25.0965C40.6405 23.0157 41 20.7701 41 18.5C41 16.2299 40.6405 13.9843 39.944 11.9035C39.2475 9.82273 38.229 7.95161 36.9521 6.40719C35.6753 4.86277 34.1676 3.67824 32.5233 2.92776C30.8791 2.17727 29.1336 1.87697 27.3963 2.04559L14.5932 2.04559C11.2469 2.06968 8.04387 3.81868 5.68418 6.91042C3.32449 10.0022 1.99995 14.1852 2 18.5456V18.5456ZM8.29661 18.5456C8.29651 16.3612 8.95764 14.2648 10.1365 12.7117C11.3154 11.1586 12.9169 10.274 14.5932 10.25L27.3963 10.25C28.2836 10.1283 29.1807 10.251 30.0294 10.6101C30.878 10.9693 31.6593 11.5569 32.3225 12.3347C32.9856 13.1126 33.5158 14.0635 33.8788 15.1256C34.2417 16.1877 34.4293 17.3373 34.4293 18.5C34.4293 19.6626 34.2417 20.8123 33.8788 21.8744C33.5158 22.9365 32.9856 23.8874 32.3225 24.6653C31.6593 25.4431 30.878 26.0307 30.0294 26.3899C29.1807 26.749 28.2836 26.8717 27.3963 26.75L14.5932 26.75C12.9289 26.7263 11.3379 25.8543 10.161 24.3208C8.98404 22.7873 8.3148 20.7142 8.29661 18.5456V18.5456Z" fill="url(#paint2_radial_426_3856)"/>
<path style="mix-blend-mode:screen" fill-rule="evenodd" clip-rule="evenodd" d="M4 18.5C4.01829 22.0495 5.1274 25.4469 7.08728 27.9568C9.04716 30.4668 11.7001 31.8872 14.4717 31.9106L27.2472 31.9106C28.7239 32.1293 30.2201 31.9456 31.6374 31.3715C33.0548 30.7974 34.3613 29.8459 35.4712 28.5794C36.5811 27.313 37.4693 25.7602 38.0774 24.0231C38.6856 22.286 39 20.4037 39 18.5C39 16.5963 38.6856 14.714 38.0774 12.9769C37.4693 11.2398 36.5811 9.68702 35.4712 8.42057C34.3613 7.15411 33.0548 6.20261 31.6374 5.6285C30.2201 5.0544 28.7239 4.87067 27.2472 5.08941L14.4717 5.08941C11.6881 5.11302 9.02463 6.54575 7.06278 9.07494C5.10093 11.6041 3.99994 15.0244 4 18.5894L4 18.5ZM6.09432 18.5C6.09424 15.6463 6.97464 12.9083 8.54373 10.8821C10.1128 8.85586 12.2435 7.70571 14.4717 7.68213L27.2472 7.68213C28.4164 7.54559 29.5949 7.72265 30.7076 8.20199C31.8203 8.68133 32.8428 9.45243 33.7098 10.4661C34.5768 11.4798 35.2693 12.7138 35.7431 14.0893C36.2169 15.4649 36.4616 16.9518 36.4616 18.4553C36.4616 19.9587 36.2169 21.4457 35.7431 22.8213C35.2693 24.1968 34.5768 25.4308 33.7098 26.4445C32.8428 27.4582 31.8203 28.2293 30.7076 28.7086C29.5949 29.188 28.4164 29.365 27.2472 29.2285L14.4717 29.2285C12.2499 29.2285 10.1191 28.0982 8.54799 26.0862C6.97693 24.0742 6.09432 21.3454 6.09432 18.5V18.5Z" fill="url(#paint3_radial_426_3856)"/>
<path fill-rule="evenodd" clip-rule="evenodd" d="M11 18.5454C11 19.9921 11.4367 21.3795 12.214 22.4024C12.9913 23.4253 14.0455 24 15.1448 24L27.7862 24C28.8919 24.0002 29.9534 23.4284 30.7417 22.408C31.5299 21.3876 31.9819 20.0004 32 18.5454C31.9822 17.082 31.5326 15.6851 30.7461 14.6501C29.9597 13.6152 28.8982 13.0234 27.7862 13L15.1448 13C14.0392 13.0239 12.9851 13.6186 12.2097 14.656C11.4343 15.6934 10.9999 17.0903 11 18.5454V18.5454Z" fill="url(#paint4_linear_426_3856)"/>
<path style="mix-blend-mode:screen" opacity="0.5" fill-rule="evenodd" clip-rule="evenodd" d="M27 13C28.2226 13.0234 29.3897 13.6152 30.2543 14.6501C31.119 15.6851 31.6133 17.082 31.6329 18.5454C31.613 20.0004 31.1161 21.3876 30.2494 22.408C29.3827 23.4284 28.2157 24.0002 27 24L28.3671 24C29.5828 24.0002 30.7498 23.4284 31.6165 22.408C32.4832 21.3876 32.9801 20.0004 33 18.5454C32.9804 17.082 32.4861 15.6851 31.6214 14.6501C30.7568 13.6152 29.5897 13.0234 28.3671 13L27 13Z" fill="url(#paint5_radial_426_3856)"/>
<path style="mix-blend-mode:screen" d="M1.03555 18.0138C0.981272 17.6475 0.989236 17.2699 1.05883 16.9081C1.12842 16.5463 1.25796 16.2093 1.43812 15.9212C1.61827 15.6331 1.84456 15.4011 2.10082 15.2419C2.35708 15.0826 2.63692 15 2.92028 15C3.20364 15 3.48353 15.0826 3.73979 15.2419C3.99606 15.4011 4.22234 15.6331 4.40249 15.9212C4.58265 16.2093 4.71219 16.5463 4.78178 16.9081C4.85137 17.2699 4.85934 17.6475 4.80506 18.0138C4.82368 21.4597 5.87119 24.7574 7.72114 27.1941C9.57109 29.6308 12.0748 31.0105 14.691 31.035L21.4476 31.035C21.8848 31.1474 22.2787 31.4565 22.5619 31.9094C22.8452 32.3623 23 32.9308 23 33.5175C23 34.1043 22.8452 34.6727 22.5619 35.1256C22.2787 35.5785 21.8848 35.8876 21.4476 36L14.9044 36C11.2999 35.9275 7.85842 34.0093 5.30937 30.6518C2.76032 27.2943 1.304 22.7614 1.24896 18.0138L1.03555 18.0138Z" fill="url(#paint6_radial_426_3856)"/>
<path style="mix-blend-mode:screen" d="M39.9107 13.8136C39.9844 14.1205 40.0129 14.4446 39.9946 14.7669C39.9763 15.0892 39.9114 15.4032 39.8039 15.6906C39.6964 15.978 39.5484 16.233 39.3685 16.4406C39.1886 16.6483 38.9804 16.8045 38.7562 16.9001C38.3058 17.0799 37.8225 17.0153 37.4057 16.7196C36.9889 16.4239 36.6701 15.9195 36.515 15.31C35.9245 12.6331 34.7311 10.2842 33.1074 8.6029C31.4837 6.92158 29.5137 5.99499 27.4824 5.95707C27.0649 5.84485 26.6888 5.53624 26.4183 5.08408C26.1479 4.63192 26 4.06434 26 3.47853C26 2.89273 26.1479 2.32515 26.4183 1.87299C26.6888 1.42083 27.0649 1.11222 27.4824 1C30.218 1.03211 32.8777 2.24217 35.0888 4.46059C37.3773 6.77328 39.0482 10.0607 39.8428 13.8136L39.9107 13.8136Z" fill="url(#paint7_radial_426_3856)"/>
<defs>
<linearGradient id="paint0_linear_426_3856" x1="41.9924" y1="19.045" x2="-6.43228e-07" y2="19.045" gradientUnits="userSpaceOnUse">
<stop stop-color="#349400"/>
<stop offset="1" stop-color="#87E300"/>
</linearGradient>
<radialGradient id="paint1_radial_426_3856" cx="0" cy="0" r="1" gradientUnits="userSpaceOnUse" gradientTransform="translate(28.3038 19.4953) rotate(-90) scale(18.3697 14.0411)">
<stop offset="0.73" stop-color="white"/>
<stop offset="0.79" stop-color="#FCFDFC"/>
<stop offset="0.83" stop-color="#F3F8F3"/>
<stop offset="0.86" stop-color="#E4EFE3"/>
<stop offset="0.9" stop-color="#CEE2CD"/>
<stop offset="0.93" stop-color="#B2D1B1"/>
<stop offset="0.96" stop-color="#8FBD8E"/>
<stop offset="0.98" stop-color="#67A565"/>
<stop offset="1" stop-color="#4D964B"/>
</radialGradient>
<radialGradient id="paint2_radial_426_3856" cx="0" cy="0" r="1" gradientUnits="userSpaceOnUse" gradientTransform="translate(6.96731 28.482) rotate(-90) scale(47.3121 36.3104)">
<stop stop-color="#66BA33"/>
<stop offset="0.72"/>
<stop offset="1" stop-color="#3F8515"/>
</radialGradient>
<radialGradient id="paint3_radial_426_3856" cx="0" cy="0" r="1" gradientUnits="userSpaceOnUse" gradientTransform="translate(9.23587 25.5629) rotate(-90) scale(40.4106 31.5548)">
<stop stop-color="#66BA33"/>
<stop offset="0.72"/>
<stop offset="1" stop-color="#3F8515"/>
</radialGradient>
<linearGradient id="paint4_linear_426_3856" x1="32" y1="18.5455" x2="11" y2="18.5455" gradientUnits="userSpaceOnUse">
<stop stop-color="#75C400"/>
<stop offset="1" stop-color="#349400"/>
</linearGradient>
<radialGradient id="paint5_radial_426_3856" cx="0" cy="0" r="1" gradientUnits="userSpaceOnUse" gradientTransform="translate(27.9873 18.2727) rotate(-90) scale(12.4545 10.4051)">
<stop offset="0.29"/>
<stop offset="0.54" stop-color="#66BA33"/>
</radialGradient>
<radialGradient id="paint6_radial_426_3856" cx="0" cy="0" r="1" gradientUnits="userSpaceOnUse" gradientTransform="translate(35.3163 13.0489) rotate(-90) scale(46.277 35.1342)">
<stop stop-color="#133D13"/>
<stop offset="1" stop-color="#73D439"/>
</radialGradient>
<radialGradient id="paint7_radial_426_3856" cx="0" cy="0" r="1" gradientUnits="userSpaceOnUse" gradientTransform="translate(23.2038 24.1019) rotate(-90) scale(33.2031 24.1096)">
<stop stop-color="#133D13"/>
<stop offset="1" stop-color="#73D439"/>
</radialGradient>
</defs>
</svg>
