<svg width="10" height="492" viewBox="0 0 10 492" fill="none" xmlns="http://www.w3.org/2000/svg">
<path d="M7.00002 487.509C7.00002 488.7 6.63127 489.843 5.97489 490.685C5.31851 491.527 4.42827 492 3.50001 492C2.57175 492 1.68151 491.527 1.02513 490.685C0.368747 489.843 -1.27071e-07 488.7 -1.72937e-07 487.509L-1.87741e-05 4.4907C-1.88199e-05 3.29969 0.368728 2.15746 1.02511 1.3153C1.68149 0.473129 2.57173 7.07326e-06 3.49999 7.02721e-06C4.42825 6.98115e-06 5.31849 0.473128 5.97487 1.3153C6.63125 2.15746 7 3.29969 7 4.4907L7.00002 487.509Z" fill="url(#paint0_linear_426_3857)"/>
<path fill-rule="evenodd" clip-rule="evenodd" d="M6.57777 486.694C6.56162 487.785 6.19443 488.829 5.54758 489.625C4.90072 490.42 4.02043 490.91 3.07779 490.999L6.18892 490.999C6.68569 491.011 7.17953 490.908 7.6415 490.697C8.10346 490.487 8.52426 490.171 8.87921 489.77C9.23416 489.369 9.51608 488.891 9.70854 488.363C9.901 487.835 10.0001 487.267 10 486.694L10 4.39432C10 3.22887 9.59848 2.11116 8.88376 1.28707C8.16904 0.462972 7.19967 9.27198e-06 6.1889 9.32512e-06L2.99998 9.49277e-06C4.01075 9.43963e-06 4.98012 0.462972 5.69484 1.28707C6.40956 2.11117 6.81108 3.22887 6.81108 4.39432L6.57777 486.694Z" fill="#FFF5E9"/>
<defs>
<linearGradient id="paint0_linear_426_3857" x1="7.00001" y1="246" x2="0.139991" y2="246" gradientUnits="userSpaceOnUse">
<stop stop-color="#7A5B41"/>
<stop offset="1" stop-color="#4D2A19"/>
</linearGradient>
</defs>
</svg>
