<svg width="155" height="160" viewBox="0 0 155 160" fill="none" xmlns="http://www.w3.org/2000/svg">
<path fill-rule="evenodd" clip-rule="evenodd" d="M122.313 0C135.065 9.2973 146.13 20.842 155 34.1043C144.104 47.1655 129.694 63.4921 114.229 79.8186C128.991 95.7823 143.401 111.746 155 126.259C145.934 139.248 134.897 150.642 122.313 160C109.308 148.753 93.8436 133.878 77.6758 117.551C61.8594 133.515 46.0429 148.39 33.0384 160C20.2974 150.834 9.23059 139.411 0.351281 126.259C10.544 113.923 24.9546 97.5964 41.1224 80.1814C25.6576 63.4921 11.2472 47.5284 0 34.1043C9.15262 21.0869 20.1751 9.58654 32.6871 0C44.9887 10.5215 60.805 25.3968 77.6758 42.449C93.1406 26.8481 108.605 12.3356 122.313 0Z" fill="url(#paint0_linear_514_16585)" fill-opacity="0.1"/>
<defs>
<linearGradient id="paint0_linear_514_16585" x1="77.6757" y1="160" x2="77.6757" y2="0" gradientUnits="userSpaceOnUse">
<stop stop-color="#930202"/>
<stop offset="1" stop-color="#FF3535"/>
</linearGradient>
</defs>
</svg>
